<svg xmlns="http://www.w3.org/2000/svg" xmlns:xlink="http://www.w3.org/1999/xlink" width="300" zoomAndPan="magnify" viewBox="0 0 224.87999 225" height="300" preserveAspectRatio="xMidYMid meet" version="1.0"><defs><clipPath id="1f03f498b5"><path d="M 9 13 L 204 13 L 204 220 L 9 220 Z M 9 13 " clip-rule="nonzero"/></clipPath><clipPath id="55289fb0f5"><path d="M 140.148438 -34.785156 L 257.160156 65.976562 L 110.90625 235.816406 L -6.105469 135.050781 Z M 140.148438 -34.785156 " clip-rule="nonzero"/></clipPath><clipPath id="2ba8ab8412"><path d="M 140.148438 -34.785156 L 257.160156 65.976562 L 110.90625 235.816406 L -6.105469 135.050781 Z M 140.148438 -34.785156 " clip-rule="nonzero"/></clipPath></defs><g clip-path="url(#1f03f498b5)"><g clip-path="url(#55289fb0f5)"><g clip-path="url(#2ba8ab8412)"><path fill="#ffffff" d="M 194.816406 75.234375 L 140.042969 28.066406 C 176.898438 4.675781 198.550781 15.507812 198.550781 15.507812 C 198.550781 15.507812 212.480469 35.3125 194.816406 75.234375 Z M 160.089844 127.640625 C 133.757812 158.222656 97.613281 170.675781 97.613281 170.675781 L 60.082031 138.355469 C 60.082031 138.355469 67.03125 100.765625 93.367188 70.183594 C 108.152344 53.015625 121.660156 40.882812 133.726562 32.3125 L 191.554688 82.109375 C 184.871094 95.3125 174.878906 110.472656 160.089844 127.640625 Z M 155.378906 99.375 C 155.851562 98.832031 156.292969 98.261719 156.707031 97.671875 C 157.125 97.082031 157.507812 96.472656 157.863281 95.847656 C 158.21875 95.21875 158.539062 94.574219 158.832031 93.914062 C 159.125 93.257812 159.382812 92.585938 159.609375 91.898438 C 159.832031 91.214844 160.023438 90.519531 160.183594 89.816406 C 160.339844 89.113281 160.460938 88.402344 160.550781 87.6875 C 160.636719 86.972656 160.691406 86.253906 160.707031 85.535156 C 160.722656 84.8125 160.707031 84.09375 160.652344 83.375 C 160.597656 82.65625 160.511719 81.941406 160.386719 81.230469 C 160.261719 80.519531 160.105469 79.816406 159.910156 79.121094 C 159.71875 78.429688 159.492188 77.746094 159.230469 77.070312 C 158.972656 76.398438 158.679688 75.742188 158.355469 75.097656 C 158.03125 74.453125 157.675781 73.828125 157.289062 73.21875 C 156.902344 72.609375 156.488281 72.023438 156.042969 71.453125 C 155.597656 70.886719 155.128906 70.339844 154.628906 69.820312 C 154.132812 69.296875 153.609375 68.800781 153.0625 68.332031 C 152.519531 67.859375 151.949219 67.417969 151.359375 67.003906 C 150.769531 66.589844 150.160156 66.203125 149.535156 65.847656 C 148.90625 65.496094 148.261719 65.171875 147.605469 64.878906 C 146.945312 64.589844 146.273438 64.328125 145.585938 64.105469 C 144.902344 63.878906 144.207031 63.6875 143.503906 63.53125 C 142.800781 63.371094 142.09375 63.25 141.375 63.160156 C 140.660156 63.074219 139.941406 63.023438 139.222656 63.003906 C 138.5 62.988281 137.78125 63.007812 137.0625 63.058594 C 136.34375 63.113281 135.628906 63.203125 134.917969 63.324219 C 134.207031 63.449219 133.503906 63.609375 132.8125 63.800781 C 132.117188 63.992188 131.433594 64.21875 130.761719 64.480469 C 130.085938 64.742188 129.429688 65.03125 128.785156 65.359375 C 128.140625 65.683594 127.515625 66.039062 126.90625 66.425781 C 126.296875 66.808594 125.710938 67.226562 125.140625 67.667969 C 124.574219 68.113281 124.027344 68.585938 123.507812 69.082031 C 122.984375 69.578125 122.488281 70.101562 122.019531 70.648438 C 121.546875 71.195312 121.105469 71.761719 120.691406 72.351562 C 120.277344 72.941406 119.890625 73.550781 119.539062 74.179688 C 119.183594 74.804688 118.859375 75.449219 118.566406 76.109375 C 118.277344 76.769531 118.015625 77.441406 117.792969 78.125 C 117.566406 78.808594 117.375 79.503906 117.21875 80.207031 C 117.058594 80.910156 116.9375 81.621094 116.851562 82.335938 C 116.761719 83.050781 116.710938 83.769531 116.691406 84.492188 C 116.675781 85.210938 116.695312 85.929688 116.746094 86.648438 C 116.800781 87.367188 116.890625 88.082031 117.015625 88.792969 C 117.136719 89.503906 117.296875 90.207031 117.488281 90.902344 C 117.683594 91.597656 117.910156 92.28125 118.167969 92.953125 C 118.429688 93.625 118.722656 94.28125 119.046875 94.925781 C 119.371094 95.570312 119.726562 96.195312 120.113281 96.804688 C 120.5 97.414062 120.914062 98.003906 121.355469 98.570312 C 121.800781 99.136719 122.273438 99.683594 122.769531 100.203125 C 123.265625 100.726562 123.789062 101.222656 124.335938 101.691406 C 124.882812 102.164062 125.449219 102.605469 126.039062 103.019531 C 126.628906 103.433594 127.238281 103.820312 127.867188 104.175781 C 128.492188 104.53125 129.136719 104.851562 129.796875 105.144531 C 130.457031 105.4375 131.128906 105.695312 131.8125 105.921875 C 132.496094 106.144531 133.191406 106.335938 133.894531 106.496094 C 134.597656 106.652344 135.308594 106.773438 136.023438 106.863281 C 136.738281 106.949219 137.457031 107.003906 138.179688 107.019531 C 138.898438 107.035156 139.617188 107.019531 140.339844 106.964844 C 141.058594 106.910156 141.773438 106.820312 142.480469 106.699219 C 143.191406 106.574219 143.894531 106.414062 144.589844 106.222656 C 145.285156 106.03125 145.96875 105.804688 146.640625 105.542969 C 147.3125 105.285156 147.96875 104.992188 148.613281 104.667969 C 149.257812 104.34375 149.882812 103.988281 150.492188 103.601562 C 151.101562 103.214844 151.691406 102.796875 152.257812 102.355469 C 152.824219 101.910156 153.371094 101.441406 153.890625 100.941406 C 154.414062 100.445312 154.910156 99.921875 155.378906 99.375 Z M 60.160156 148.105469 C 59.789062 147.789062 59.375 147.554688 58.914062 147.402344 C 58.449219 147.25 57.976562 147.191406 57.492188 147.226562 C 57.007812 147.261719 56.546875 147.390625 56.113281 147.609375 C 55.679688 147.828125 55.300781 148.121094 54.984375 148.492188 L 50.195312 154.050781 C 49.878906 154.421875 49.644531 154.835938 49.492188 155.296875 C 49.339844 155.761719 49.28125 156.234375 49.320312 156.71875 C 49.355469 157.203125 49.480469 157.664062 49.703125 158.097656 C 49.921875 158.53125 50.214844 158.910156 50.582031 159.226562 C 50.953125 159.542969 51.367188 159.777344 51.828125 159.929688 C 52.292969 160.082031 52.765625 160.140625 53.25 160.105469 C 53.734375 160.070312 54.195312 159.941406 54.628906 159.722656 C 55.0625 159.503906 55.441406 159.207031 55.757812 158.839844 L 60.546875 153.28125 C 60.863281 152.910156 61.097656 152.496094 61.25 152.035156 C 61.402344 151.570312 61.460938 151.097656 61.425781 150.613281 C 61.386719 150.128906 61.261719 149.667969 61.042969 149.234375 C 60.820312 148.800781 60.527344 148.421875 60.160156 148.105469 Z M 87.960938 172.046875 C 87.59375 171.730469 87.175781 171.492188 86.714844 171.339844 C 86.253906 171.1875 85.777344 171.132812 85.292969 171.167969 C 84.808594 171.203125 84.347656 171.332031 83.914062 171.550781 C 83.480469 171.769531 83.105469 172.0625 82.785156 172.433594 L 78 177.992188 C 77.679688 178.359375 77.445312 178.777344 77.292969 179.238281 C 77.140625 179.699219 77.082031 180.175781 77.121094 180.660156 C 77.15625 181.144531 77.285156 181.605469 77.503906 182.039062 C 77.722656 182.472656 78.015625 182.847656 78.382812 183.167969 C 78.753906 183.484375 79.167969 183.71875 79.628906 183.871094 C 80.09375 184.023438 80.566406 184.082031 81.050781 184.046875 C 81.535156 184.007812 81.996094 183.882812 82.429688 183.664062 C 82.867188 183.441406 83.242188 183.148438 83.558594 182.78125 L 88.347656 177.21875 C 88.664062 176.851562 88.898438 176.4375 89.050781 175.972656 C 89.203125 175.511719 89.261719 175.039062 89.226562 174.554688 C 89.1875 174.066406 89.0625 173.609375 88.84375 173.175781 C 88.625 172.738281 88.328125 172.363281 87.960938 172.046875 Z M 74.058594 160.074219 C 73.691406 159.757812 73.277344 159.523438 72.8125 159.371094 C 72.351562 159.21875 71.878906 159.160156 71.394531 159.199219 C 70.90625 159.234375 70.449219 159.359375 70.011719 159.582031 C 69.578125 159.800781 69.203125 160.09375 68.886719 160.460938 L 52.128906 179.921875 C 51.808594 180.292969 51.574219 180.707031 51.421875 181.167969 C 51.269531 181.632812 51.210938 182.105469 51.25 182.589844 C 51.285156 183.074219 51.414062 183.535156 51.632812 183.96875 C 51.851562 184.402344 52.144531 184.78125 52.511719 185.097656 C 52.882812 185.414062 53.296875 185.648438 53.757812 185.800781 C 54.222656 185.953125 54.695312 186.011719 55.179688 185.976562 C 55.664062 185.941406 56.125 185.8125 56.558594 185.59375 C 56.996094 185.375 57.371094 185.078125 57.6875 184.710938 L 74.445312 165.25 C 74.761719 164.882812 75 164.464844 75.152344 164.003906 C 75.304688 163.542969 75.359375 163.066406 75.324219 162.582031 C 75.289062 162.097656 75.160156 161.636719 74.941406 161.203125 C 74.722656 160.769531 74.429688 160.394531 74.058594 160.074219 Z M 18.070312 107.019531 C 8.496094 118.140625 9.265625 128.488281 9.265625 128.488281 L 54.605469 129.632812 C 58.894531 113.855469 65.257812 98.960938 73.691406 84.953125 C 59.746094 86.867188 30.59375 92.476562 18.070312 107.019531 Z M 148.402344 149.289062 C 135.804688 159.710938 122.019531 168.210938 107.054688 174.796875 L 114.914062 219.464844 C 114.914062 219.464844 125.261719 218.691406 134.835938 207.570312 C 147.359375 193.03125 148.582031 163.363281 148.402344 149.289062 Z M 148.402344 149.289062 " fill-opacity="1" fill-rule="nonzero"/></g></g></g></svg>