<svg xmlns="http://www.w3.org/2000/svg" xmlns:xlink="http://www.w3.org/1999/xlink" width="70" zoomAndPan="magnify" viewBox="0 0 52.5 52.499999" height="70" preserveAspectRatio="xMidYMid meet" version="1.0"><defs><clipPath id="d3a852bf31"><path d="M 0 0 L 52.003906 0 L 52.003906 52.003906 L 0 52.003906 Z M 0 0 " clip-rule="nonzero"/></clipPath><clipPath id="32b79caeaa"><path d="M 3.714844 0 L 48.4375 0 C 50.488281 0 52.152344 1.664062 52.152344 3.714844 L 52.152344 48.289062 C 52.152344 50.339844 50.488281 52.003906 48.4375 52.003906 L 3.714844 52.003906 C 1.664062 52.003906 0 50.339844 0 48.289062 L 0 3.714844 C 0 1.664062 1.664062 0 3.714844 0 Z M 3.714844 0 " clip-rule="nonzero"/></clipPath><clipPath id="5be27779a8"><path d="M 0.890625 2.265625 L 48.4375 2.265625 L 48.4375 49.8125 L 0.890625 49.8125 Z M 0.890625 2.265625 " clip-rule="nonzero"/></clipPath></defs><g clip-path="url(#d3a852bf31)"><g clip-path="url(#32b79caeaa)"><path fill="#38b6ff" d="M 0 0 L 52.207031 0 L 52.207031 52.003906 L 0 52.003906 Z M 0 0 " fill-opacity="1" fill-rule="nonzero"/></g></g><g clip-path="url(#5be27779a8)"><path fill="#ffffff" d="M 43.039062 2.265625 C 35.152344 2.265625 24.566406 7.679688 17.457031 16.984375 L 11.5625 16.984375 C 7.304688 16.984375 4.863281 20.164062 3.183594 23.523438 L 0.933594 28.023438 L 11.5625 28.023438 L 22.601562 39.0625 L 22.601562 49.691406 L 27.101562 47.441406 C 30.460938 45.761719 33.640625 43.320312 33.640625 39.0625 L 33.640625 33.167969 C 42.945312 26.058594 48.359375 15.472656 48.359375 7.582031 L 48.359375 2.265625 Z M 33.640625 13.304688 C 35.671875 13.304688 37.320312 14.953125 37.320312 16.984375 C 37.320312 19.015625 35.671875 20.664062 33.640625 20.664062 C 31.609375 20.664062 29.960938 19.015625 29.960938 16.984375 C 29.960938 14.953125 31.609375 13.304688 33.640625 13.304688 Z M 9.722656 35.382812 L 7.882812 37.222656 C 5.226562 39.878906 4.203125 46.421875 4.203125 46.421875 C 4.203125 46.421875 10.453125 45.691406 13.402344 42.742188 L 15.242188 40.902344 Z M 9.722656 35.382812 " fill-opacity="1" fill-rule="nonzero"/></g></svg>